<svg height="511" version="1.1" width="753" xmlns="http://www.w3.org/2000/svg" xmlns:xlink="http://www.w3.org/1999/xlink" style="overflow: hidden; position: relative; top: -0.875px;"><desc style="-webkit-tap-highlight-color: rgba(0, 0, 0, 0);">Created with Raphaël 2.3.0</desc><defs style="-webkit-tap-highlight-color: rgba(0, 0, 0, 0);"></defs><rect x="0" y="0" width="753" height="511" rx="0" ry="0" fill="#ffffff" stroke="none" style="-webkit-tap-highlight-color: rgba(0, 0, 0, 0);"></rect><ellipse cx="306" cy="224" rx="130" ry="183.29999999999998" fill="#62e7ff" stroke="#62e7ff" transform="matrix(1,0,0,1,0,0)" stroke-width="1" opacity="0.7" style="-webkit-tap-highlight-color: rgba(0, 0, 0, 0); opacity: 0.7;"></ellipse><ellipse cx="376" cy="273" rx="129" ry="181.89" fill="#62e7ff" stroke="#62e7ff" transform="matrix(0.9808,0.1951,-0.1951,0.9808,60.4844,-68.1083)" stroke-width="1" opacity="0.7" style="-webkit-tap-highlight-color: rgba(0, 0, 0, 0); opacity: 0.7;"></ellipse><ellipse cx="590" cy="284" rx="121" ry="170.60999999999999" fill="#62e7ff" stroke="#62e7ff" transform="matrix(0.9239,0.3827,-0.3827,0.9239,153.5932,-204.165)" stroke-width="1" opacity="0.7" style="-webkit-tap-highlight-color: rgba(0, 0, 0, 0); opacity: 0.7;"></ellipse><ellipse cx="617" cy="259" rx="123" ry="173.42999999999998" fill="#62e7ff" stroke="#62e7ff" transform="matrix(0.8315,0.5556,-0.5556,0.8315,247.8759,-299.1375)" stroke-width="1" opacity="0.7" style="-webkit-tap-highlight-color: rgba(0, 0, 0, 0); opacity: 0.7;"></ellipse><ellipse cx="137" cy="220" rx="129" ry="181.89" fill="#62e7ff" stroke="#62e7ff" transform="matrix(0.7071,0.7071,-0.7071,0.7071,195.6899,-32.4371)" stroke-width="1" opacity="0.7" style="-webkit-tap-highlight-color: rgba(0, 0, 0, 0); opacity: 0.7;"></ellipse><ellipse cx="586" cy="298" rx="127" ry="179.07" fill="#62e7ff" stroke="#62e7ff" transform="matrix(0.5556,0.8315,-0.8315,0.5556,508.2138,-354.8011)" stroke-width="1" opacity="0.7" style="-webkit-tap-highlight-color: rgba(0, 0, 0, 0); opacity: 0.7;"></ellipse><ellipse cx="231" cy="238" rx="126" ry="177.66" fill="#62e7ff" stroke="#62e7ff" transform="matrix(0.3827,0.9239,-0.9239,0.3827,362.4835,-66.4948)" stroke-width="1" opacity="0.7" style="-webkit-tap-highlight-color: rgba(0, 0, 0, 0); opacity: 0.7;"></ellipse><ellipse cx="269" cy="250" rx="129" ry="181.89" fill="#62e7ff" stroke="#62e7ff" transform="matrix(0.1951,0.9808,-0.9808,0.1951,461.717,-62.6038)" stroke-width="1" opacity="0.7" style="-webkit-tap-highlight-color: rgba(0, 0, 0, 0); opacity: 0.7;"></ellipse><ellipse cx="474" cy="219" rx="128" ry="180.48" fill="#62e7ff" stroke="#62e7ff" transform="matrix(0,1,-1,0,693,-255)" stroke-width="1" opacity="0.7" style="-webkit-tap-highlight-color: rgba(0, 0, 0, 0); opacity: 0.7;"></ellipse><ellipse cx="211" cy="215" rx="129" ry="181.89" fill="#62e7ff" stroke="#62e7ff" transform="matrix(-0.1951,0.9808,-0.9808,-0.1951,463.0329,49.9987)" stroke-width="1" opacity="0.7" style="-webkit-tap-highlight-color: rgba(0, 0, 0, 0); opacity: 0.7;"></ellipse><ellipse cx="469" cy="234" rx="129" ry="181.89" fill="#62e7ff" stroke="#62e7ff" transform="matrix(-0.3827,0.9239,-0.9239,-0.3827,864.6663,-109.7516)" stroke-width="1" opacity="0.7" style="-webkit-tap-highlight-color: rgba(0, 0, 0, 0); opacity: 0.7;"></ellipse><ellipse cx="227" cy="202" rx="125" ry="176.25" fill="#62e7ff" stroke="#62e7ff" transform="matrix(-0.5556,0.8315,-0.8315,-0.5556,521.0713,125.4816)" stroke-width="1" opacity="0.7" style="-webkit-tap-highlight-color: rgba(0, 0, 0, 0); opacity: 0.7;"></ellipse><ellipse cx="378" cy="276" rx="122" ry="172.01999999999998" fill="#62e7ff" stroke="#62e7ff" transform="matrix(-0.7071,0.7071,-0.7071,-0.7071,840.4478,203.8751)" stroke-width="1" opacity="0.7" style="-webkit-tap-highlight-color: rgba(0, 0, 0, 0); opacity: 0.7;"></ellipse><ellipse cx="195" cy="307" rx="125" ry="176.25" fill="#62e7ff" stroke="#62e7ff" transform="matrix(-0.8315,0.5556,-0.5556,-0.8315,527.6966,453.925)" stroke-width="1" opacity="0.7" style="-webkit-tap-highlight-color: rgba(0, 0, 0, 0); opacity: 0.7;"></ellipse><ellipse cx="435" cy="215" rx="127" ry="179.07" fill="#62e7ff" stroke="#62e7ff" transform="matrix(-0.9239,0.3827,-0.3827,-0.9239,919.1645,247.1668)" stroke-width="1" opacity="0.7" style="-webkit-tap-highlight-color: rgba(0, 0, 0, 0); opacity: 0.7;"></ellipse><ellipse cx="410" cy="203" rx="130" ry="183.29999999999998" fill="#62e7ff" stroke="#62e7ff" transform="matrix(-0.9808,0.1951,-0.1951,-0.9808,851.7253,322.1124)" stroke-width="1" opacity="0.7" style="-webkit-tap-highlight-color: rgba(0, 0, 0, 0); opacity: 0.7;"></ellipse><ellipse cx="296" cy="207" rx="122" ry="172.01999999999998" fill="#62e7ff" stroke="#62e7ff" transform="matrix(-1,0,0,-1,592,414)" stroke-width="1" opacity="0.7" style="-webkit-tap-highlight-color: rgba(0, 0, 0, 0); opacity: 0.7;"></ellipse><ellipse cx="380" cy="264" rx="129" ry="181.89" fill="#62e7ff" stroke="#62e7ff" transform="matrix(-0.9808,-0.1951,0.1951,-0.9808,701.1946,597.0616)" stroke-width="1" opacity="0.7" style="-webkit-tap-highlight-color: rgba(0, 0, 0, 0); opacity: 0.7;"></ellipse><ellipse cx="159" cy="279" rx="130" ry="183.29999999999998" fill="#62e7ff" stroke="#62e7ff" transform="matrix(-0.9239,-0.3827,0.3827,-0.9239,199.1282,597.6091)" stroke-width="1" opacity="0.7" style="-webkit-tap-highlight-color: rgba(0, 0, 0, 0); opacity: 0.7;"></ellipse><ellipse cx="521" cy="253" rx="126" ry="177.66" fill="#62e7ff" stroke="#62e7ff" transform="matrix(-0.8315,-0.5556,0.5556,-0.8315,813.6364,752.8139)" stroke-width="1" opacity="0.7" style="-webkit-tap-highlight-color: rgba(0, 0, 0, 0); opacity: 0.7;"></ellipse><ellipse cx="292" cy="274" rx="124" ry="174.84" fill="#62e7ff" stroke="#62e7ff" transform="matrix(-0.7071,-0.7071,0.7071,-0.7071,304.7279,674.2224)" stroke-width="1" opacity="0.7" style="-webkit-tap-highlight-color: rgba(0, 0, 0, 0); opacity: 0.7;"></ellipse><ellipse cx="254" cy="308" rx="130" ry="183.29999999999998" fill="#62e7ff" stroke="#62e7ff" transform="matrix(-0.5556,-0.8315,0.8315,-0.5556,139.0222,690.3089)" stroke-width="1" opacity="0.7" style="-webkit-tap-highlight-color: rgba(0, 0, 0, 0); opacity: 0.7;"></ellipse><ellipse cx="184" cy="283" rx="120" ry="169.2" fill="#62e7ff" stroke="#62e7ff" transform="matrix(-0.3827,-0.9239,0.9239,-0.3827,-7.0442,561.2932)" stroke-width="1" opacity="0.7" style="-webkit-tap-highlight-color: rgba(0, 0, 0, 0); opacity: 0.7;"></ellipse><ellipse cx="429" cy="266" rx="122" ry="172.01999999999998" fill="#62e7ff" stroke="#62e7ff" transform="matrix(-0.1951,-0.9808,0.9808,-0.1951,251.8049,738.6509)" stroke-width="1" opacity="0.7" style="-webkit-tap-highlight-color: rgba(0, 0, 0, 0); opacity: 0.7;"></ellipse><ellipse cx="248" cy="297" rx="127" ry="179.07" fill="#62e7ff" stroke="#62e7ff" transform="matrix(0,-1,1,0,-49,545)" stroke-width="1" opacity="0.7" style="-webkit-tap-highlight-color: rgba(0, 0, 0, 0); opacity: 0.7;"></ellipse><ellipse cx="373" cy="208" rx="125" ry="176.25" fill="#62e7ff" stroke="#62e7ff" transform="matrix(0.1951,-0.9808,0.9808,0.1951,96.228,533.2541)" stroke-width="1" opacity="0.7" style="-webkit-tap-highlight-color: rgba(0, 0, 0, 0); opacity: 0.7;"></ellipse><ellipse cx="433" cy="306" rx="123" ry="173.42999999999998" fill="#62e7ff" stroke="#62e7ff" transform="matrix(0.3827,-0.9239,0.9239,0.3827,-15.4091,588.9387)" stroke-width="1" opacity="0.7" style="-webkit-tap-highlight-color: rgba(0, 0, 0, 0); opacity: 0.7;"></ellipse><ellipse cx="346" cy="253" rx="129" ry="181.89" fill="#62e7ff" stroke="#62e7ff" transform="matrix(0.5556,-0.8315,0.8315,0.5556,-56.5891,400.1292)" stroke-width="1" opacity="0.7" style="-webkit-tap-highlight-color: rgba(0, 0, 0, 0); opacity: 0.7;"></ellipse><ellipse cx="213" cy="255" rx="129" ry="181.89" fill="#62e7ff" stroke="#62e7ff" transform="matrix(0.7071,-0.7071,0.7071,0.7071,-117.926,225.3015)" stroke-width="1" opacity="0.7" style="-webkit-tap-highlight-color: rgba(0, 0, 0, 0); opacity: 0.7;"></ellipse><ellipse cx="346" cy="297" rx="127" ry="179.07" fill="#62e7ff" stroke="#62e7ff" transform="matrix(0.8315,-0.5556,0.5556,0.8315,-106.6928,242.2808)" stroke-width="1" opacity="0.7" style="-webkit-tap-highlight-color: rgba(0, 0, 0, 0); opacity: 0.7;"></ellipse><ellipse cx="319" cy="211" rx="126" ry="177.66" fill="#62e7ff" stroke="#62e7ff" transform="matrix(0.9239,-0.3827,0.3827,0.9239,-56.4638,138.1374)" stroke-width="1" opacity="0.7" style="-webkit-tap-highlight-color: rgba(0, 0, 0, 0); opacity: 0.7;"></ellipse><ellipse cx="619" cy="242" rx="126" ry="177.66" fill="#62e7ff" stroke="#62e7ff" transform="matrix(0.9808,-0.1951,0.1951,0.9808,-35.3179,125.4109)" stroke-width="1" opacity="0.7" style="-webkit-tap-highlight-color: rgba(0, 0, 0, 0); opacity: 0.7;"></ellipse></svg>