<svg height="511" version="1.1" width="753" xmlns="http://www.w3.org/2000/svg" xmlns:xlink="http://www.w3.org/1999/xlink" style="overflow: hidden; position: relative; top: -0.875px;"><desc style="-webkit-tap-highlight-color: rgba(0, 0, 0, 0);">Created with Raphaël 2.3.0</desc><defs style="-webkit-tap-highlight-color: rgba(0, 0, 0, 0);"></defs><rect x="0" y="0" width="753" height="511" rx="0" ry="0" fill="#ffffff" stroke="none" style="-webkit-tap-highlight-color: rgba(0, 0, 0, 0);"></rect><ellipse cx="178" cy="250" rx="126" ry="177.66" fill="#62e7ff" stroke="#62e7ff" transform="matrix(1,0,0,1,0,0)" stroke-width="1" opacity="0.5" style="-webkit-tap-highlight-color: rgba(0, 0, 0, 0); opacity: 0.5;"></ellipse><ellipse cx="525" cy="241" rx="120" ry="169.2" fill="#62e7ff" stroke="#62e7ff" transform="matrix(0.9808,0.1951,-0.1951,0.9808,57.1045,-97.7917)" stroke-width="1" opacity="0.5" style="-webkit-tap-highlight-color: rgba(0, 0, 0, 0); opacity: 0.5;"></ellipse><ellipse cx="532" cy="274" rx="121" ry="170.60999999999999" fill="#62e7ff" stroke="#62e7ff" transform="matrix(0.9239,0.3827,-0.3827,0.9239,145.3513,-182.7306)" stroke-width="1" opacity="0.5" style="-webkit-tap-highlight-color: rgba(0, 0, 0, 0); opacity: 0.5;"></ellipse><ellipse cx="248" cy="297" rx="127" ry="179.07" fill="#62e7ff" stroke="#62e7ff" transform="matrix(0.8315,0.5556,-0.5556,0.8315,206.7999,-87.7279)" stroke-width="1" opacity="0.5" style="-webkit-tap-highlight-color: rgba(0, 0, 0, 0); opacity: 0.5;"></ellipse><ellipse cx="155" cy="303" rx="127" ry="179.07" fill="#62e7ff" stroke="#62e7ff" transform="matrix(0.7071,0.7071,-0.7071,0.7071,259.6518,-20.8549)" stroke-width="1" opacity="0.5" style="-webkit-tap-highlight-color: rgba(0, 0, 0, 0); opacity: 0.5;"></ellipse><ellipse cx="426" cy="262" rx="123" ry="173.42999999999998" fill="#62e7ff" stroke="#62e7ff" transform="matrix(0.5556,0.8315,-0.8315,0.5556,407.1721,-237.7655)" stroke-width="1" opacity="0.5" style="-webkit-tap-highlight-color: rgba(0, 0, 0, 0); opacity: 0.5;"></ellipse><ellipse cx="329" cy="286" rx="126" ry="177.66" fill="#62e7ff" stroke="#62e7ff" transform="matrix(0.3827,0.9239,-0.9239,0.3827,467.3267,-127.4038)" stroke-width="1" opacity="0.5" style="-webkit-tap-highlight-color: rgba(0, 0, 0, 0); opacity: 0.5;"></ellipse><ellipse cx="261" cy="220" rx="125" ry="176.25" fill="#62e7ff" stroke="#62e7ff" transform="matrix(0.1951,0.9808,-0.9808,0.1951,425.8542,-78.9048)" stroke-width="1" opacity="0.5" style="-webkit-tap-highlight-color: rgba(0, 0, 0, 0); opacity: 0.5;"></ellipse><ellipse cx="131" cy="265" rx="121" ry="170.60999999999999" fill="#62e7ff" stroke="#62e7ff" transform="matrix(0,1,-1,0,396,134)" stroke-width="1" opacity="0.5" style="-webkit-tap-highlight-color: rgba(0, 0, 0, 0); opacity: 0.5;"></ellipse><ellipse cx="283" cy="257" rx="120" ry="169.2" fill="#62e7ff" stroke="#62e7ff" transform="matrix(-0.1951,0.9808,-0.9808,-0.1951,590.2724,29.576)" stroke-width="1" opacity="0.5" style="-webkit-tap-highlight-color: rgba(0, 0, 0, 0); opacity: 0.5;"></ellipse><ellipse cx="522" cy="221" rx="130" ry="183.29999999999998" fill="#62e7ff" stroke="#62e7ff" transform="matrix(-0.3827,0.9239,-0.9239,-0.3827,925.9381,-176.6921)" stroke-width="1" opacity="0.5" style="-webkit-tap-highlight-color: rgba(0, 0, 0, 0); opacity: 0.5;"></ellipse><ellipse cx="602" cy="254" rx="123" ry="173.42999999999998" fill="#62e7ff" stroke="#62e7ff" transform="matrix(-0.5556,0.8315,-0.8315,-0.5556,1147.6466,-105.4299)" stroke-width="1" opacity="0.5" style="-webkit-tap-highlight-color: rgba(0, 0, 0, 0); opacity: 0.5;"></ellipse><ellipse cx="552" cy="252" rx="127" ry="179.07" fill="#62e7ff" stroke="#62e7ff" transform="matrix(-0.7071,0.7071,-0.7071,-0.7071,1120.5139,39.868)" stroke-width="1" opacity="0.5" style="-webkit-tap-highlight-color: rgba(0, 0, 0, 0); opacity: 0.5;"></ellipse><ellipse cx="160" cy="217" rx="129" ry="181.89" fill="#62e7ff" stroke="#62e7ff" transform="matrix(-0.8315,0.5556,-0.5556,-0.8315,413.5939,308.5377)" stroke-width="1" opacity="0.5" style="-webkit-tap-highlight-color: rgba(0, 0, 0, 0); opacity: 0.5;"></ellipse><ellipse cx="284" cy="299" rx="122" ry="172.01999999999998" fill="#62e7ff" stroke="#62e7ff" transform="matrix(-0.9239,0.3827,-0.3827,-0.9239,660.8041,466.5579)" stroke-width="1" opacity="0.5" style="-webkit-tap-highlight-color: rgba(0, 0, 0, 0); opacity: 0.5;"></ellipse><ellipse cx="412" cy="206" rx="129" ry="181.89" fill="#62e7ff" stroke="#62e7ff" transform="matrix(-0.9808,0.1951,-0.1951,-0.9808,856.2721,327.6646)" stroke-width="1" opacity="0.5" style="-webkit-tap-highlight-color: rgba(0, 0, 0, 0); opacity: 0.5;"></ellipse><ellipse cx="374" cy="213" rx="123" ry="173.42999999999998" fill="#62e7ff" stroke="#62e7ff" transform="matrix(-1,0,0,-1,748,426)" stroke-width="1" opacity="0.5" style="-webkit-tap-highlight-color: rgba(0, 0, 0, 0); opacity: 0.5;"></ellipse><ellipse cx="239" cy="256" rx="129" ry="181.89" fill="#62e7ff" stroke="#62e7ff" transform="matrix(-0.9808,-0.1951,0.1951,-0.9808,423.4646,553.7076)" stroke-width="1" opacity="0.5" style="-webkit-tap-highlight-color: rgba(0, 0, 0, 0); opacity: 0.5;"></ellipse><ellipse cx="496" cy="262" rx="126" ry="177.66" fill="#62e7ff" stroke="#62e7ff" transform="matrix(-0.9239,-0.3827,0.3827,-0.9239,853.9812,693.8674)" stroke-width="1" opacity="0.5" style="-webkit-tap-highlight-color: rgba(0, 0, 0, 0); opacity: 0.5;"></ellipse><ellipse cx="516" cy="293" rx="127" ry="179.07" fill="#62e7ff" stroke="#62e7ff" transform="matrix(-0.8315,-0.5556,0.5556,-0.8315,782.2562,823.2948)" stroke-width="1" opacity="0.5" style="-webkit-tap-highlight-color: rgba(0, 0, 0, 0); opacity: 0.5;"></ellipse><ellipse cx="364" cy="211" rx="129" ry="181.89" fill="#62e7ff" stroke="#62e7ff" transform="matrix(-0.7071,-0.7071,0.7071,-0.7071,472.1873,617.5864)" stroke-width="1" opacity="0.5" style="-webkit-tap-highlight-color: rgba(0, 0, 0, 0); opacity: 0.5;"></ellipse><ellipse cx="232" cy="265" rx="126" ry="177.66" fill="#62e7ff" stroke="#62e7ff" transform="matrix(-0.5556,-0.8315,0.8315,-0.5556,140.5528,605.1271)" stroke-width="1" opacity="0.5" style="-webkit-tap-highlight-color: rgba(0, 0, 0, 0); opacity: 0.5;"></ellipse><ellipse cx="517" cy="216" rx="121" ry="170.60999999999999" fill="#62e7ff" stroke="#62e7ff" transform="matrix(-0.3827,-0.9239,0.9239,-0.3827,515.2894,776.3053)" stroke-width="1" opacity="0.5" style="-webkit-tap-highlight-color: rgba(0, 0, 0, 0); opacity: 0.5;"></ellipse><ellipse cx="590" cy="213" rx="129" ry="181.89" fill="#62e7ff" stroke="#62e7ff" transform="matrix(-0.1951,-0.9808,0.9808,-0.1951,496.196,833.2176)" stroke-width="1" opacity="0.5" style="-webkit-tap-highlight-color: rgba(0, 0, 0, 0); opacity: 0.5;"></ellipse><ellipse cx="633" cy="235" rx="122" ry="172.01999999999998" fill="#62e7ff" stroke="#62e7ff" transform="matrix(0,-1,1,0,398,868)" stroke-width="1" opacity="0.5" style="-webkit-tap-highlight-color: rgba(0, 0, 0, 0); opacity: 0.5;"></ellipse><ellipse cx="479" cy="219" rx="123" ry="173.42999999999998" fill="#62e7ff" stroke="#62e7ff" transform="matrix(0.1951,-0.9808,0.9808,0.1951,170.7598,646.0714)" stroke-width="1" opacity="0.5" style="-webkit-tap-highlight-color: rgba(0, 0, 0, 0); opacity: 0.5;"></ellipse><ellipse cx="328" cy="228" rx="122" ry="172.01999999999998" fill="#62e7ff" stroke="#62e7ff" transform="matrix(0.3827,-0.9239,0.9239,0.3827,-8.1647,443.7807)" stroke-width="1" opacity="0.5" style="-webkit-tap-highlight-color: rgba(0, 0, 0, 0); opacity: 0.5;"></ellipse><ellipse cx="317" cy="200" rx="130" ry="183.29999999999998" fill="#62e7ff" stroke="#62e7ff" transform="matrix(0.5556,-0.8315,0.8315,0.5556,-25.4097,352.4618)" stroke-width="1" opacity="0.5" style="-webkit-tap-highlight-color: rgba(0, 0, 0, 0); opacity: 0.5;"></ellipse><ellipse cx="418" cy="229" rx="125" ry="176.25" fill="#62e7ff" stroke="#62e7ff" transform="matrix(0.7071,-0.7071,0.7071,0.7071,-39.4981,362.6432)" stroke-width="1" opacity="0.5" style="-webkit-tap-highlight-color: rgba(0, 0, 0, 0); opacity: 0.5;"></ellipse><ellipse cx="568" cy="208" rx="126" ry="177.66" fill="#62e7ff" stroke="#62e7ff" transform="matrix(0.8315,-0.5556,0.5556,0.8315,-19.8333,350.6182)" stroke-width="1" opacity="0.5" style="-webkit-tap-highlight-color: rgba(0, 0, 0, 0); opacity: 0.5;"></ellipse><ellipse cx="508" cy="277" rx="123" ry="173.42999999999998" fill="#62e7ff" stroke="#62e7ff" transform="matrix(0.9239,-0.3827,0.3827,0.9239,-67.3341,215.4886)" stroke-width="1" opacity="0.5" style="-webkit-tap-highlight-color: rgba(0, 0, 0, 0); opacity: 0.5;"></ellipse><ellipse cx="193" cy="297" rx="124" ry="174.84" fill="#62e7ff" stroke="#62e7ff" transform="matrix(0.9808,-0.1951,0.1951,0.9808,-54.2334,43.3592)" stroke-width="1" opacity="0.5" style="-webkit-tap-highlight-color: rgba(0, 0, 0, 0); opacity: 0.5;"></ellipse></svg>